<svg width="1200" height="800" viewBox="0 0 1200 800" fill="none" xmlns="http://www.w3.org/2000/svg">
  <defs>
    <linearGradient id="bg" x1="0" y1="0" x2="1200" y2="800" gradientUnits="userSpaceOnUse">
      <stop stop-color="#080D1A"/>
      <stop offset="1" stop-color="#111827"/>
    </linearGradient>
    <linearGradient id="accent" x1="210" y1="200" x2="990" y2="620" gradientUnits="userSpaceOnUse">
      <stop stop-color="#22D3EE"/>
      <stop offset="1" stop-color="#F472B6"/>
    </linearGradient>
  </defs>
  <rect width="1200" height="800" rx="56" fill="url(#bg)"/>
  <circle cx="260" cy="170" r="230" fill="#22D3EE" fill-opacity=".08"/>
  <circle cx="940" cy="620" r="250" fill="#F472B6" fill-opacity=".09"/>
  <rect x="130" y="120" width="940" height="560" rx="36" fill="white" fill-opacity=".04" stroke="white" stroke-opacity=".10"/>
  <text x="176" y="182" fill="#67E8F9" font-family="Inter, Arial, sans-serif" font-size="14" font-weight="700" letter-spacing="5">AI TOOLS PLAYBOOK</text>
  <text x="176" y="232" fill="#F8FAFC" font-family="Inter, Arial, sans-serif" font-size="42" font-weight="700">Tools that multiply good work</text>
  <text x="176" y="272" fill="#CBD5E1" font-family="Inter, Arial, sans-serif" font-size="18">A practical guide for choosing tools that improve research, writing, and planning.</text>
  <rect x="176" y="330" width="276" height="240" rx="30" fill="#0B1224" fill-opacity=".86" stroke="white" stroke-opacity=".08"/>
  <rect x="212" y="370" width="204" height="34" rx="17" fill="#22D3EE" fill-opacity=".14" stroke="#22D3EE" stroke-opacity=".24"/>
  <text x="236" y="392" fill="#BAE6FD" font-family="Inter, Arial, sans-serif" font-size="14" font-weight="700" letter-spacing="4">RESEARCH</text>
  <rect x="212" y="420" width="164" height="34" rx="17" fill="#F472B6" fill-opacity=".14" stroke="#F472B6" stroke-opacity=".24"/>
  <text x="236" y="442" fill="#FBCFE8" font-family="Inter, Arial, sans-serif" font-size="14" font-weight="700" letter-spacing="4">WRITING</text>
  <rect x="212" y="470" width="188" height="34" rx="17" fill="#A855F7" fill-opacity=".14" stroke="#A855F7" stroke-opacity=".24"/>
  <text x="236" y="492" fill="#E9D5FF" font-family="Inter, Arial, sans-serif" font-size="14" font-weight="700" letter-spacing="4">PLANNING</text>
  <rect x="488" y="330" width="342" height="240" rx="30" fill="white" fill-opacity=".05" stroke="white" stroke-opacity=".08"/>
  <path d="M528 520L592 460L646 490L706 416L790 360" stroke="url(#accent)" stroke-width="8" stroke-linecap="round" stroke-linejoin="round"/>
  <circle cx="528" cy="520" r="8" fill="#22D3EE"/>
  <circle cx="592" cy="460" r="8" fill="#67E8F9"/>
  <circle cx="646" cy="490" r="8" fill="#F472B6"/>
  <circle cx="706" cy="416" r="8" fill="#A855F7"/>
  <circle cx="790" cy="360" r="8" fill="#22D3EE"/>
  <rect x="848" y="330" width="182" height="240" rx="30" fill="#0B1224" fill-opacity=".86" stroke="white" stroke-opacity=".08"/>
  <text x="882" y="390" fill="#F8FAFC" font-family="Inter, Arial, sans-serif" font-size="24" font-weight="700">Better</text>
  <text x="882" y="430" fill="#CBD5E1" font-family="Inter, Arial, sans-serif" font-size="18">Faster</text>
  <text x="882" y="470" fill="#CBD5E1" font-family="Inter, Arial, sans-serif" font-size="18">Clearer</text>
  <text x="882" y="510" fill="#CBD5E1" font-family="Inter, Arial, sans-serif" font-size="18">Smarter</text>
</svg>
