<svg width="1200" height="800" viewBox="0 0 1200 800" fill="none" xmlns="http://www.w3.org/2000/svg">
  <defs>
    <linearGradient id="bg" x1="0" y1="0" x2="1200" y2="800" gradientUnits="userSpaceOnUse">
      <stop stop-color="#09111D"/>
      <stop offset="1" stop-color="#101827"/>
    </linearGradient>
    <linearGradient id="accent" x1="220" y1="200" x2="980" y2="610" gradientUnits="userSpaceOnUse">
      <stop stop-color="#60A5FA"/>
      <stop offset="1" stop-color="#A855F7"/>
    </linearGradient>
  </defs>
  <rect width="1200" height="800" rx="56" fill="url(#bg)"/>
  <circle cx="280" cy="160" r="230" fill="#60A5FA" fill-opacity=".08"/>
  <circle cx="920" cy="620" r="250" fill="#A855F7" fill-opacity=".09"/>
  <rect x="130" y="120" width="940" height="560" rx="36" fill="white" fill-opacity=".04" stroke="white" stroke-opacity=".10"/>
  <text x="176" y="182" fill="#93C5FD" font-family="Inter, Arial, sans-serif" font-size="14" font-weight="700" letter-spacing="5">COLLABORATION LOG</text>
  <text x="176" y="232" fill="#F8FAFC" font-family="Inter, Arial, sans-serif" font-size="42" font-weight="700">Teams move better together</text>
  <text x="176" y="272" fill="#CBD5E1" font-family="Inter, Arial, sans-serif" font-size="18">A simple way to keep feedback, ownership, and momentum aligned.</text>
  <rect x="176" y="330" width="250" height="240" rx="30" fill="#0B1224" fill-opacity=".85" stroke="white" stroke-opacity=".08"/>
  <circle cx="220" cy="382" r="18" fill="#60A5FA" fill-opacity=".22" stroke="#60A5FA" stroke-opacity=".4"/>
  <circle cx="266" cy="382" r="18" fill="#A855F7" fill-opacity=".22" stroke="#A855F7" stroke-opacity=".4"/>
  <circle cx="312" cy="382" r="18" fill="#34D399" fill-opacity=".22" stroke="#34D399" stroke-opacity=".4"/>
  <text x="220" y="456" fill="#F8FAFC" font-family="Inter, Arial, sans-serif" font-size="28" font-weight="700">Listen</text>
  <text x="220" y="492" fill="#CBD5E1" font-family="Inter, Arial, sans-serif" font-size="18">Align</text>
  <text x="220" y="528" fill="#CBD5E1" font-family="Inter, Arial, sans-serif" font-size="18">Execute</text>
  <rect x="454" y="330" width="320" height="240" rx="30" fill="white" fill-opacity=".05" stroke="white" stroke-opacity=".08"/>
  <path d="M492 520C540 472 582 484 632 432C682 380 720 400 738 360" stroke="url(#accent)" stroke-width="8" stroke-linecap="round"/>
  <circle cx="492" cy="520" r="8" fill="#60A5FA"/>
  <circle cx="632" cy="432" r="8" fill="#A855F7"/>
  <circle cx="738" cy="360" r="8" fill="#34D399"/>
  <rect x="812" y="330" width="218" height="240" rx="30" fill="#0B1224" fill-opacity=".85" stroke="white" stroke-opacity=".08"/>
  <text x="846" y="386" fill="#F8FAFC" font-family="Inter, Arial, sans-serif" font-size="24" font-weight="700">Next steps</text>
  <text x="846" y="426" fill="#CBD5E1" font-family="Inter, Arial, sans-serif" font-size="18">Clear owner</text>
  <text x="846" y="462" fill="#CBD5E1" font-family="Inter, Arial, sans-serif" font-size="18">Due date</text>
  <text x="846" y="498" fill="#CBD5E1" font-family="Inter, Arial, sans-serif" font-size="18">Follow-up</text>
</svg>
