<svg width="1200" height="800" viewBox="0 0 1200 800" fill="none" xmlns="http://www.w3.org/2000/svg">
  <defs>
    <linearGradient id="bg" x1="0" y1="0" x2="1200" y2="800" gradientUnits="userSpaceOnUse">
      <stop stop-color="#06131B"/>
      <stop offset="1" stop-color="#0B1F2E"/>
    </linearGradient>
    <linearGradient id="accent" x1="200" y1="200" x2="980" y2="610" gradientUnits="userSpaceOnUse">
      <stop stop-color="#22C55E"/>
      <stop offset="1" stop-color="#38BDF8"/>
    </linearGradient>
  </defs>
  <rect width="1200" height="800" rx="56" fill="url(#bg)"/>
  <circle cx="250" cy="170" r="220" fill="#22C55E" fill-opacity=".08"/>
  <circle cx="950" cy="610" r="240" fill="#38BDF8" fill-opacity=".08"/>
  <rect x="130" y="120" width="940" height="560" rx="36" fill="white" fill-opacity=".04" stroke="white" stroke-opacity=".10"/>
  <text x="176" y="182" fill="#86EFAC" font-family="Inter, Arial, sans-serif" font-size="14" font-weight="700" letter-spacing="5">FINANCE TRACKER</text>
  <text x="176" y="232" fill="#F8FAFC" font-family="Inter, Arial, sans-serif" font-size="42" font-weight="700">Numbers with purpose</text>
  <text x="176" y="272" fill="#CBD5E1" font-family="Inter, Arial, sans-serif" font-size="18">A disciplined view of budgets, priorities, and better decisions.</text>
  <rect x="176" y="330" width="420" height="250" rx="30" fill="#0B1224" fill-opacity=".86" stroke="white" stroke-opacity=".08"/>
  <path d="M216 540V480H258V540H216ZM290 540V440H332V540H290ZM364 540V400H406V540H364ZM438 540V360H480V540H438Z" fill="url(#accent)"/>
  <path d="M216 466C280 452 320 408 364 384C408 360 448 330 480 304" stroke="#38BDF8" stroke-width="6" stroke-linecap="round"/>
  <circle cx="216" cy="466" r="7" fill="#38BDF8"/>
  <circle cx="364" cy="384" r="7" fill="#22C55E"/>
  <circle cx="480" cy="304" r="7" fill="#86EFAC"/>
  <rect x="632" y="330" width="398" height="250" rx="30" fill="white" fill-opacity=".05" stroke="white" stroke-opacity=".08"/>
  <text x="668" y="386" fill="#F8FAFC" font-family="Inter, Arial, sans-serif" font-size="28" font-weight="700">Planning, not guessing</text>
  <text x="668" y="426" fill="#CBD5E1" font-family="Inter, Arial, sans-serif" font-size="18">Track the numbers that support growth and protect focus.</text>
  <rect x="668" y="468" width="98" height="34" rx="17" fill="#22C55E" fill-opacity=".14" stroke="#22C55E" stroke-opacity=".24"/>
  <text x="686" y="490" fill="#BBF7D0" font-family="Inter, Arial, sans-serif" font-size="14" font-weight="700" letter-spacing="4">BUDGET</text>
  <rect x="778" y="468" width="114" height="34" rx="17" fill="#38BDF8" fill-opacity=".14" stroke="#38BDF8" stroke-opacity=".24"/>
  <text x="798" y="490" fill="#BAE6FD" font-family="Inter, Arial, sans-serif" font-size="14" font-weight="700" letter-spacing="4">FOCUS</text>
  <rect x="906" y="468" width="86" height="34" rx="17" fill="#A855F7" fill-opacity=".14" stroke="#A855F7" stroke-opacity=".24"/>
  <text x="926" y="490" fill="#E9D5FF" font-family="Inter, Arial, sans-serif" font-size="14" font-weight="700" letter-spacing="4">ROI</text>
</svg>
