<svg width="1200" height="800" viewBox="0 0 1200 800" fill="none" xmlns="http://www.w3.org/2000/svg">
  <defs>
    <linearGradient id="bg" x1="0" y1="0" x2="1200" y2="800" gradientUnits="userSpaceOnUse">
      <stop stop-color="#07111F"/>
      <stop offset="1" stop-color="#0F172A"/>
    </linearGradient>
    <linearGradient id="chart" x1="220" y1="160" x2="1000" y2="660" gradientUnits="userSpaceOnUse">
      <stop stop-color="#38BDF8"/>
      <stop offset="1" stop-color="#34D399"/>
    </linearGradient>
  </defs>
  <rect width="1200" height="800" rx="56" fill="url(#bg)"/>
  <circle cx="940" cy="170" r="220" fill="#38BDF8" fill-opacity=".08"/>
  <circle cx="220" cy="620" r="250" fill="#34D399" fill-opacity=".08"/>
  <rect x="130" y="120" width="940" height="560" rx="36" fill="white" fill-opacity=".04" stroke="white" stroke-opacity=".10"/>
  <text x="176" y="180" fill="#7DD3FC" font-family="Inter, Arial, sans-serif" font-size="14" font-weight="700" letter-spacing="5">MARKET RESEARCH</text>
  <text x="176" y="228" fill="#F8FAFC" font-family="Inter, Arial, sans-serif" font-size="42" font-weight="700">Signal over noise</text>
  <text x="176" y="268" fill="#CBD5E1" font-family="Inter, Arial, sans-serif" font-size="18">A focused view of customers, competitors, and emerging opportunities.</text>
  <rect x="176" y="320" width="330" height="280" rx="28" fill="#0B1224" fill-opacity=".85" stroke="white" stroke-opacity=".08"/>
  <path d="M214 548C262 484 304 516 350 452C396 388 434 424 476 360" stroke="url(#chart)" stroke-width="8" stroke-linecap="round"/>
  <circle cx="214" cy="548" r="8" fill="#38BDF8"/>
  <circle cx="350" cy="452" r="8" fill="#60A5FA"/>
  <circle cx="476" cy="360" r="8" fill="#34D399"/>
  <rect x="562" y="320" width="430" height="126" rx="28" fill="white" fill-opacity=".04" stroke="white" stroke-opacity=".08"/>
  <text x="598" y="366" fill="#E2E8F0" font-family="Inter, Arial, sans-serif" font-size="28" font-weight="700">What matters most?</text>
  <text x="598" y="398" fill="#CBD5E1" font-family="Inter, Arial, sans-serif" font-size="18">Patterns, behaviour, and the reason people choose one idea over another.</text>
  <rect x="562" y="470" width="430" height="130" rx="28" fill="#0B1224" fill-opacity=".82" stroke="white" stroke-opacity=".08"/>
  <rect x="598" y="508" width="98" height="34" rx="17" fill="#38BDF8" fill-opacity=".14" stroke="#38BDF8" stroke-opacity=".24"/>
  <text x="620" y="530" fill="#BAE6FD" font-family="Inter, Arial, sans-serif" font-size="14" font-weight="700" letter-spacing="4">INSIGHT</text>
  <rect x="710" y="508" width="104" height="34" rx="17" fill="#34D399" fill-opacity=".14" stroke="#34D399" stroke-opacity=".24"/>
  <text x="732" y="530" fill="#D1FAE5" font-family="Inter, Arial, sans-serif" font-size="14" font-weight="700" letter-spacing="4">TRENDS</text>
  <rect x="830" y="508" width="130" height="34" rx="17" fill="#A855F7" fill-opacity=".14" stroke="#A855F7" stroke-opacity=".24"/>
  <text x="848" y="530" fill="#E9D5FF" font-family="Inter, Arial, sans-serif" font-size="14" font-weight="700" letter-spacing="4">CUSTOMER</text>
</svg>
