<svg width="1200" height="800" viewBox="0 0 1200 800" fill="none" xmlns="http://www.w3.org/2000/svg">
  <defs>
    <linearGradient id="bg" x1="0" y1="0" x2="1200" y2="800" gradientUnits="userSpaceOnUse">
      <stop stop-color="#0F172A"/>
      <stop offset="1" stop-color="#111827"/>
    </linearGradient>
    <linearGradient id="accent" x1="180" y1="200" x2="1020" y2="600" gradientUnits="userSpaceOnUse">
      <stop stop-color="#F97316"/>
      <stop offset="1" stop-color="#E11D48"/>
    </linearGradient>
  </defs>
  <rect width="1200" height="800" rx="56" fill="url(#bg)"/>
  <circle cx="300" cy="180" r="210" fill="#F97316" fill-opacity=".10"/>
  <circle cx="930" cy="620" r="240" fill="#E11D48" fill-opacity=".10"/>
  <rect x="140" y="120" width="920" height="560" rx="36" fill="white" fill-opacity=".04" stroke="white" stroke-opacity=".10"/>
  <text x="184" y="184" fill="#FDBA74" font-family="Inter, Arial, sans-serif" font-size="14" font-weight="700" letter-spacing="5">PITCH DECK</text>
  <text x="184" y="236" fill="#F8FAFC" font-family="Inter, Arial, sans-serif" font-size="42" font-weight="700">Clear, concise, compelling</text>
  <text x="184" y="276" fill="#CBD5E1" font-family="Inter, Arial, sans-serif" font-size="18">A story-first structure for presenting ideas with confidence.</text>
  <rect x="184" y="332" width="252" height="240" rx="30" fill="#111827" fill-opacity=".8" stroke="white" stroke-opacity=".08"/>
  <text x="220" y="388" fill="#F8FAFC" font-family="Inter, Arial, sans-serif" font-size="30" font-weight="700">Problem</text>
  <text x="220" y="426" fill="#CBD5E1" font-family="Inter, Arial, sans-serif" font-size="18">What is missing?</text>
  <path d="M220 490H400" stroke="url(#accent)" stroke-width="8" stroke-linecap="round"/>
  <circle cx="220" cy="490" r="10" fill="#F97316"/>
  <circle cx="400" cy="490" r="10" fill="#E11D48"/>
  <rect x="470" y="332" width="320" height="240" rx="30" fill="white" fill-opacity=".05" stroke="white" stroke-opacity=".08"/>
  <path d="M522 516L590 450L640 482L716 390" stroke="url(#accent)" stroke-width="10" stroke-linecap="round" stroke-linejoin="round"/>
  <circle cx="522" cy="516" r="10" fill="#F97316"/>
  <circle cx="590" cy="450" r="10" fill="#FB7185"/>
  <circle cx="640" cy="482" r="10" fill="#FDBA74"/>
  <circle cx="716" cy="390" r="10" fill="#E11D48"/>
  <rect x="828" y="332" width="164" height="240" rx="30" fill="#0B1224" fill-opacity=".86" stroke="white" stroke-opacity=".08"/>
  <text x="864" y="390" fill="#F8FAFC" font-family="Inter, Arial, sans-serif" font-size="24" font-weight="700">Flow</text>
  <text x="864" y="428" fill="#CBD5E1" font-family="Inter, Arial, sans-serif" font-size="18">Hook</text>
  <text x="864" y="460" fill="#CBD5E1" font-family="Inter, Arial, sans-serif" font-size="18">Need</text>
  <text x="864" y="492" fill="#CBD5E1" font-family="Inter, Arial, sans-serif" font-size="18">Solution</text>
  <text x="184" y="624" fill="#F8FAFC" font-family="Inter, Arial, sans-serif" font-size="28" font-weight="700">Built for clarity, not clutter.</text>
</svg>
